<svg id="Layer_1" data-name="Layer 1" xmlns="http://www.w3.org/2000/svg" viewBox="0 0 194.9 183.33"><defs><style>.cls-1{fill:#fff;}</style></defs><title>logo</title><path class="cls-1" d="M17.77,133a12,12,0,0,1,2.85,1.67,1.2,1.2,0,0,0,.66.31c.47,0,.77-.7.91-2.09H23q-.14,2.37-.14,8.42h-.8a17.41,17.41,0,0,0-.84-3.93A5.66,5.66,0,0,0,19.44,135a6.13,6.13,0,0,0-2-1.27,6.75,6.75,0,0,0-2.4-.43A5.53,5.53,0,0,0,9.8,136.7a19,19,0,0,0-1.71,8.54,18.15,18.15,0,0,0,1.78,8.49,5.66,5.66,0,0,0,5.29,3.42,6.69,6.69,0,0,0,2.35-.44,5.16,5.16,0,0,0,2-1.27,5.1,5.1,0,0,0,1.8-2.44,20.56,20.56,0,0,0,.78-4.28h.8c0,4.2,0,7.13.14,8.77h-.8a6,6,0,0,0-.3-1.58c-.12-.31-.3-.47-.54-.47a1.5,1.5,0,0,0-.73.28,15.1,15.1,0,0,1-3,1.69,9.3,9.3,0,0,1-3.45.57,13.3,13.3,0,0,1-6.45-1.5,10.38,10.38,0,0,1-4.3-4.33,14.07,14.07,0,0,1-1.53-6.77,14.37,14.37,0,0,1,1.56-6.79A11.37,11.37,0,0,1,7.83,134a12.46,12.46,0,0,1,6.39-1.64A9.38,9.38,0,0,1,17.77,133Z"/><path class="cls-1" d="M49.93,133.83a1.21,1.21,0,0,0-.72.8,7.09,7.09,0,0,0-.19,1.91V153.8a7.18,7.18,0,0,0,.19,1.92,1.23,1.23,0,0,0,.72.8,6,6,0,0,0,1.7.28v.69c-1.13-.07-2.9-.1-5.29-.1s-4.16,0-5.46.1v-.69a6.2,6.2,0,0,0,1.69-.28,1.22,1.22,0,0,0,.73-.8,7.18,7.18,0,0,0,.19-1.92v-8.35H34.27v8.35a6.78,6.78,0,0,0,.19,1.92,1.19,1.19,0,0,0,.71.8,6.08,6.08,0,0,0,1.71.28v.69c-1.26-.07-3-.1-5.26-.1-2.48,0-4.32,0-5.5.1v-.69a6.13,6.13,0,0,0,1.69-.28,1.22,1.22,0,0,0,.73-.8,6.78,6.78,0,0,0,.19-1.92V136.54a6.7,6.7,0,0,0-.19-1.91,1.2,1.2,0,0,0-.73-.8,5.77,5.77,0,0,0-1.69-.28v-.7c1.18.07,3,.11,5.5.11,2.25,0,4,0,5.26-.11v.7a5.74,5.74,0,0,0-1.71.28,1.17,1.17,0,0,0-.71.8,6.7,6.7,0,0,0-.19,1.91v8.21h9.22v-8.21a7.09,7.09,0,0,0-.19-1.91,1.2,1.2,0,0,0-.73-.8,5.83,5.83,0,0,0-1.69-.28v-.7c1.3.07,3.12.11,5.46.11s4.16,0,5.29-.11v.7A5.66,5.66,0,0,0,49.93,133.83Z"/><path class="cls-1" d="M75.09,156.24a2,2,0,0,0,1.15.56v.69c-1.39-.07-3.16-.1-5.29-.1-2.37,0-4.13,0-5.29.1v-.69a5.72,5.72,0,0,0,1.88-.33,1,1,0,0,0,.56-.93,4.85,4.85,0,0,0-.42-1.67l-2.09-5.7H58l-.9,2.4a11.74,11.74,0,0,0-1,3.86,1.94,1.94,0,0,0,.79,1.79,4.69,4.69,0,0,0,2.31.58v.69c-1.58-.07-3-.1-4.31-.1-1.07,0-1.95,0-2.65.1v-.69c1.14-.21,2.13-1.43,3-3.66l7.94-20.36a11.94,11.94,0,0,0,1.22,0,10.92,10.92,0,0,0,1.18,0l8.46,21.79A4.32,4.32,0,0,0,75.09,156.24Zm-9.74-8.77-3.45-9.4-3.62,9.4Z"/><path class="cls-1" d="M104.71,133.83a1.19,1.19,0,0,0-.71.8,6.7,6.7,0,0,0-.19,1.91V153.8a6.78,6.78,0,0,0,.19,1.92,1.22,1.22,0,0,0,.73.8,6.13,6.13,0,0,0,1.69.28v.69c-1.28-.07-3.1-.1-5.47-.1s-4.31,0-5.5.1v-.69a7,7,0,0,0,1.83-.28,1.27,1.27,0,0,0,.78-.8,6.28,6.28,0,0,0,.21-1.92V135.6l-8.39,21.93h-.55l-9.4-22.42v16.68a15.46,15.46,0,0,0,.21,3,2.1,2.1,0,0,0,.9,1.39,5.76,5.76,0,0,0,2.27.61v.69c-.91-.07-2.16-.1-3.76-.1-1.28,0-2.29,0-3,.1v-.69a3.84,3.84,0,0,0,1.69-.59,2.18,2.18,0,0,0,.73-1.33,13.71,13.71,0,0,0,.19-2.68V136.54a6.7,6.7,0,0,0-.19-1.91,1.2,1.2,0,0,0-.73-.8,5.77,5.77,0,0,0-1.69-.28v-.7c.74.07,1.75.11,3,.11,2.13,0,4,0,5.5-.11l7,17L98.48,133H101c2.37,0,4.19,0,5.47-.11v.7A5.74,5.74,0,0,0,104.71,133.83Z"/><path class="cls-1" d="M116.89,147.54v6.06a5.12,5.12,0,0,0,.3,2,1.5,1.5,0,0,0,1,.85,10.34,10.34,0,0,0,2.39.25v.76q-4.29-.11-6.37-.1c-1.16,0-2.62,0-4.39.07l-1.11,0v-.69a6.2,6.2,0,0,0,1.69-.28,1.22,1.22,0,0,0,.73-.8,7.18,7.18,0,0,0,.19-1.92V136.54a7.09,7.09,0,0,0-.19-1.91,1.2,1.2,0,0,0-.73-.8,5.83,5.83,0,0,0-1.69-.28v-.7c1.18.07,3,.11,5.29.11l3.86,0c.47,0,1,0,1.6,0,3.14,0,5.52.62,7.17,1.86a5.92,5.92,0,0,1,2.47,5,7.17,7.17,0,0,1-4.26,6.62,13.67,13.67,0,0,1-6.14,1.18Zm.79-13.75a1.32,1.32,0,0,0-.61.87,7.34,7.34,0,0,0-.18,1.88v10.3h1.5c1.88,0,3.18-.6,3.9-1.81a12.25,12.25,0,0,0,.08-9.88,3.59,3.59,0,0,0-3.32-1.6A2.94,2.94,0,0,0,117.68,133.79Z"/><path class="cls-1" d="M141.64,133.55a5.74,5.74,0,0,0-1.71.28,1.22,1.22,0,0,0-.71.8,6.7,6.7,0,0,0-.19,1.91V153.8a6.78,6.78,0,0,0,.19,1.92,1.24,1.24,0,0,0,.71.8,6.08,6.08,0,0,0,1.71.28v.69c-1.25-.07-3-.1-5.26-.1-2.48,0-4.31,0-5.5.1v-.69a6.13,6.13,0,0,0,1.69-.28,1.2,1.2,0,0,0,.73-.8,6.7,6.7,0,0,0,.2-1.92V136.54a6.62,6.62,0,0,0-.2-1.91,1.17,1.17,0,0,0-.73-.8,5.77,5.77,0,0,0-1.69-.28v-.7c1.19.07,3,.11,5.5.11,2.25,0,4,0,5.26-.11Z"/><path class="cls-1" d="M162.78,133.86a10.44,10.44,0,0,1,4.3,4.33,14.07,14.07,0,0,1,1.53,6.77,14.32,14.32,0,0,1-1.56,6.79,11.46,11.46,0,0,1-4.37,4.6,12.45,12.45,0,0,1-6.39,1.63,13.3,13.3,0,0,1-6.45-1.5,10.38,10.38,0,0,1-4.3-4.33,14.07,14.07,0,0,1-1.53-6.77,14.37,14.37,0,0,1,1.56-6.79,11.37,11.37,0,0,1,4.37-4.59,12.46,12.46,0,0,1,6.39-1.64A13.3,13.3,0,0,1,162.78,133.86Zm-10,.68a10.28,10.28,0,0,0-2.24,4.33,23.67,23.67,0,0,0-.79,6.37,20.76,20.76,0,0,0,.89,6.37,10.34,10.34,0,0,0,2.4,4.25,4.67,4.67,0,0,0,3.36,1.49,4.53,4.53,0,0,0,3.38-1.54,10.33,10.33,0,0,0,2.24-4.34,23.22,23.22,0,0,0,.79-6.37,20.85,20.85,0,0,0-.89-6.37,10.3,10.3,0,0,0-2.4-4.24,4.68,4.68,0,0,0-3.36-1.5A4.54,4.54,0,0,0,152.81,134.54Z"/><path class="cls-1" d="M194,133.55a3.64,3.64,0,0,0-1.69.59,2.18,2.18,0,0,0-.73,1.32,14.7,14.7,0,0,0-.19,2.68v19.42l-.83,0-.94,0-15.11-19.14v13.37a15.46,15.46,0,0,0,.21,3,2.1,2.1,0,0,0,.9,1.39,5.76,5.76,0,0,0,2.27.61v.69c-.91-.07-2.16-.1-3.76-.1-1.28,0-2.29,0-3,.1v-.69a3.84,3.84,0,0,0,1.69-.59,2.18,2.18,0,0,0,.73-1.33,13.71,13.71,0,0,0,.19-2.68V136.54a6.7,6.7,0,0,0-.19-1.91,1.2,1.2,0,0,0-.73-.8,5.77,5.77,0,0,0-1.69-.28v-.7c.74.07,1.75.11,3,.11s2.16,0,3-.11l13.47,16.6V138.56a15.46,15.46,0,0,0-.21-3,2.07,2.07,0,0,0-.9-1.39,5.59,5.59,0,0,0-2.27-.61v-.7c.91.07,2.16.11,3.76.11,1.3,0,2.31,0,3-.11Z"/><path class="cls-1" d="M11.51,164.92c0,.63,0,1.15.05,1.56h-.43a11.78,11.78,0,0,0-.38-2.18,1.78,1.78,0,0,0-.8-1,3.59,3.59,0,0,0-1.75-.33h-1v10.8a3.27,3.27,0,0,0,.15,1.16.86.86,0,0,0,.53.49,4.56,4.56,0,0,0,1.24.17v.38c-.66,0-1.59-.06-2.8-.06s-2.2,0-2.8.06v-.38a4.41,4.41,0,0,0,1.23-.17.86.86,0,0,0,.53-.49,3.27,3.27,0,0,0,.15-1.16v-10.8h-1a3.59,3.59,0,0,0-1.75.33,1.82,1.82,0,0,0-.8,1,11.78,11.78,0,0,0-.38,2.18H1c0-.41.05-.93.05-1.56s0-1.53-.13-2.43c1.05,0,2.84.06,5.35.06s4.29,0,5.34-.06C11.55,163.39,11.51,164.2,11.51,164.92Z"/><path class="cls-1" d="M24.72,175a3.29,3.29,0,0,1-.87.93,2.1,2.1,0,0,1-1.16.29,1.8,1.8,0,0,1-1.28-.46,2.88,2.88,0,0,1-.75-1.59l-.42-1.9a10.91,10.91,0,0,0-.43-1.52,1.88,1.88,0,0,0-.6-.85,1.68,1.68,0,0,0-1.12-.33h-1.8v4.37a3.22,3.22,0,0,0,.12,1,.66.66,0,0,0,.42.44,3.44,3.44,0,0,0,1,.15v.38c-.58,0-1.39-.06-2.41-.06s-1.9,0-2.43.06v-.38a3.36,3.36,0,0,0,1-.15.67.67,0,0,0,.43-.44,3.22,3.22,0,0,0,.12-1V164.5a3.22,3.22,0,0,0-.12-1A.67.67,0,0,0,14,163a4.21,4.21,0,0,0-1-.15v-.38q.8.06,2.31.06l2.05,0,.82,0a5.45,5.45,0,0,1,3.39.92,2.88,2.88,0,0,1,1.19,2.38,3.4,3.4,0,0,1-.36,1.49,3.51,3.51,0,0,1-1.17,1.35,4.93,4.93,0,0,1-2.16.81l.23,0a3.35,3.35,0,0,1,1.82.76A3.37,3.37,0,0,1,22,172l.47,1.94a4.39,4.39,0,0,0,.4,1.21.64.64,0,0,0,.57.34.8.8,0,0,0,.54-.17,2.55,2.55,0,0,0,.51-.55Zm-7.91-12a.75.75,0,0,0-.4.48,3.29,3.29,0,0,0-.12,1v4.67h1.27a3.25,3.25,0,0,0,2.58-.83,3.5,3.5,0,0,0,.71-2.32,3.34,3.34,0,0,0-.74-2.35,3.18,3.18,0,0,0-2.41-.8A2.25,2.25,0,0,0,16.81,163Z"/><path class="cls-1" d="M34.7,163a5.5,5.5,0,0,1,2.1,2.36,8.45,8.45,0,0,1,.75,3.7,8.56,8.56,0,0,1-.76,3.7,6,6,0,0,1-2.15,2.51,5.66,5.66,0,0,1-3.12.89,5.93,5.93,0,0,1-3.16-.82A5.4,5.4,0,0,1,26.25,173a9.39,9.39,0,0,1,0-7.4,5.9,5.9,0,0,1,2.14-2.5,5.6,5.6,0,0,1,3.13-.9A6.07,6.07,0,0,1,34.7,163Zm-5.38.37a5.52,5.52,0,0,0-1.42,2.36,11,11,0,0,0-.5,3.48,9.72,9.72,0,0,0,.56,3.47A5.48,5.48,0,0,0,29.47,175a3.19,3.19,0,0,0,2.12.82,3.1,3.1,0,0,0,2.14-.85,5.42,5.42,0,0,0,1.42-2.36,10.94,10.94,0,0,0,.51-3.48,10,10,0,0,0-.56-3.47,5.68,5.68,0,0,0-1.51-2.32,3.22,3.22,0,0,0-2.13-.81A3.09,3.09,0,0,0,29.32,163.41Z"/><path class="cls-1" d="M42.51,170.5v3.42a2.62,2.62,0,0,0,.15,1,.81.81,0,0,0,.53.44,5.22,5.22,0,0,0,1.24.15v.38q-1-.06-2.79-.06-1.64,0-2.43.06v-.38a3.42,3.42,0,0,0,1-.15.7.7,0,0,0,.43-.44,3.61,3.61,0,0,0,.11-1V164.5a3.61,3.61,0,0,0-.11-1,.7.7,0,0,0-.43-.44,4.31,4.31,0,0,0-1-.15v-.38q.8.06,2.31.06l2,0,.82,0a5.06,5.06,0,0,1,3.4,1A3.41,3.41,0,0,1,49,166.25a4.51,4.51,0,0,1-.46,2,3.81,3.81,0,0,1-1.58,1.61,5.84,5.84,0,0,1-3,.64ZM43,163a.76.76,0,0,0-.41.48,3.69,3.69,0,0,0-.11,1v5.62h1.27a3,3,0,0,0,2.57-1,4.49,4.49,0,0,0,.72-2.67,4.19,4.19,0,0,0-.74-2.72,3,3,0,0,0-2.42-.87A2.23,2.23,0,0,0,43,163Z"/><path class="cls-1" d="M62.09,163a.7.7,0,0,0-.43.44,3.61,3.61,0,0,0-.11,1v9.42a3.61,3.61,0,0,0,.11,1,.7.7,0,0,0,.43.44,3.44,3.44,0,0,0,1,.15v.38q-.8-.06-2.43-.06c-1,0-1.83,0-2.41.06v-.38a3.42,3.42,0,0,0,1-.15.7.7,0,0,0,.43-.44,3.28,3.28,0,0,0,.11-1v-4.56H53.61v4.56a3.22,3.22,0,0,0,.12,1,.67.67,0,0,0,.43.44,3.36,3.36,0,0,0,1,.15v.38c-.58,0-1.38-.06-2.41-.06s-1.9,0-2.43.06v-.38a3.44,3.44,0,0,0,1-.15.7.7,0,0,0,.43-.44,3.61,3.61,0,0,0,.11-1V164.5a3.61,3.61,0,0,0-.11-1,.7.7,0,0,0-.43-.44,4.32,4.32,0,0,0-1-.15v-.38q.8.06,2.43.06c1,0,1.82,0,2.41-.06v.38a4.21,4.21,0,0,0-1,.15.67.67,0,0,0-.43.44,3.22,3.22,0,0,0-.12,1V169h6.17V164.5a3.28,3.28,0,0,0-.11-1,.7.7,0,0,0-.43-.44,4.31,4.31,0,0,0-1-.15v-.38c.58,0,1.38.06,2.41.06s1.9,0,2.43-.06v.38A4.32,4.32,0,0,0,62.09,163Z"/><path class="cls-1" d="M69.52,162.87a4.31,4.31,0,0,0-1,.15.7.7,0,0,0-.43.44,3.28,3.28,0,0,0-.11,1v9.42a3.28,3.28,0,0,0,.11,1,.7.7,0,0,0,.43.44,3.42,3.42,0,0,0,1,.15v.38c-.58,0-1.38-.06-2.41-.06s-1.9,0-2.43.06v-.38a3.44,3.44,0,0,0,1-.15.7.7,0,0,0,.43-.44,3.61,3.61,0,0,0,.11-1V164.5a3.61,3.61,0,0,0-.11-1,.7.7,0,0,0-.43-.44,4.32,4.32,0,0,0-1-.15v-.38q.79.06,2.43.06c1,0,1.82,0,2.41-.06Z"/><path class="cls-1" d="M81,175.93q-1.29-.06-4.35-.06c-2.43,0-4.26,0-5.5.06v-.38a3.36,3.36,0,0,0,1-.15.67.67,0,0,0,.43-.44,3.22,3.22,0,0,0,.12-1V164.5a3.22,3.22,0,0,0-.12-1,.67.67,0,0,0-.43-.44,4.21,4.21,0,0,0-1-.15v-.38c1.24,0,3.07.06,5.5.06,1.86,0,3.19,0,4-.06a21.06,21.06,0,0,0-.13,2.24,9.15,9.15,0,0,0,.06,1.18h-.44a8.82,8.82,0,0,0-.34-1.83,1.57,1.57,0,0,0-.71-.88,3.18,3.18,0,0,0-1.5-.27H76a3.46,3.46,0,0,0-1,.1.63.63,0,0,0-.42.43,3.22,3.22,0,0,0-.12,1V169h1.25a1.51,1.51,0,0,0,1-.31,1.54,1.54,0,0,0,.48-.74,6,6,0,0,0,.2-1.07l.06-.38h.44c0,.53-.06,1.12-.06,1.78v.91c0,.65,0,1.55.11,2.7H77.5c0-.09,0-.4-.12-.92a1.83,1.83,0,0,0-.52-1.19,1.69,1.69,0,0,0-1.19-.4H74.42v4.56a3.22,3.22,0,0,0,.12,1,.63.63,0,0,0,.42.43,3.46,3.46,0,0,0,1,.1h1.38a4.07,4.07,0,0,0,1.8-.31,1.89,1.89,0,0,0,.9-1,7.79,7.79,0,0,0,.42-2.05h.43c0,.35,0,.8,0,1.37C80.84,174.22,80.88,175,81,175.93Z"/><path class="cls-1" d="M88.06,162.46a5.33,5.33,0,0,1,1,.52,1.36,1.36,0,0,0,.64.27.29.29,0,0,0,.27-.2,2.4,2.4,0,0,0,.15-.64h.44c-.07.74-.1,2-.1,3.88H90a4.87,4.87,0,0,0-.89-2.59,2.57,2.57,0,0,0-2.23-1.06,2.33,2.33,0,0,0-1.67.62,2.09,2.09,0,0,0-.64,1.58,2.34,2.34,0,0,0,.33,1.26,3.31,3.31,0,0,0,.84.91c.35.25.83.57,1.47,1l.55.34a21,21,0,0,1,1.89,1.3,4.64,4.64,0,0,1,1.11,1.28,3.38,3.38,0,0,1,.41,1.69,3.27,3.27,0,0,1-1.14,2.67,4.39,4.39,0,0,1-2.88.94,5,5,0,0,1-1.49-.19,5.1,5.1,0,0,1-1.11-.52,1.46,1.46,0,0,0-.65-.26.29.29,0,0,0-.26.2,2,2,0,0,0-.16.63h-.43c0-.69.07-2.21.07-4.55h.44a6.25,6.25,0,0,0,1,3.11,2.82,2.82,0,0,0,2.51,1.2,2.51,2.51,0,0,0,1.74-.64,2.38,2.38,0,0,0,.72-1.89,2.47,2.47,0,0,0-.71-1.8,11.23,11.23,0,0,0-2.25-1.67,21.39,21.39,0,0,1-1.81-1.22,4.33,4.33,0,0,1-1.13-1.28,3.42,3.42,0,0,1-.44-1.75,3,3,0,0,1,1-2.44,3.82,3.82,0,0,1,2.54-.85A3.88,3.88,0,0,1,88.06,162.46Z"/><path class="cls-1" d="M111.58,162.92a2.34,2.34,0,0,1,.79,1.87,2.6,2.6,0,0,1-.49,1.58,3.58,3.58,0,0,1-1.31,1.08,27.55,27.55,0,0,1-2.81,1,3.23,3.23,0,0,1,1.56,1.3,3.69,3.69,0,0,1,.51,1.93,4,4,0,0,1-.7,2.22,4.9,4.9,0,0,1-2,1.68,7,7,0,0,1-3.07.64,8.14,8.14,0,0,1-3.07-.58A5.46,5.46,0,0,1,98.72,174a3.94,3.94,0,0,1-.83-2.5,3.56,3.56,0,0,1,.61-2.12A4.49,4.49,0,0,1,99.92,168a6.11,6.11,0,0,1,1.48-.61,3.4,3.4,0,0,1-1.43-1.07,2.33,2.33,0,0,1-.49-1.38,2,2,0,0,1,.37-1.17,2.58,2.58,0,0,1,1.1-.87,4.06,4.06,0,0,1,1.74-.34,3,3,0,0,1,2,.57,2.11,2.11,0,0,1,.53.64,1.47,1.47,0,0,1,.18.67.89.89,0,0,1-.33.73,1.07,1.07,0,0,1-.74.28,1,1,0,0,1-.69-.26.85.85,0,0,1-.29-.69,1,1,0,0,1,.28-.71,1.06,1.06,0,0,1,.72-.33.83.83,0,0,0-.48-.43,2.28,2.28,0,0,0-1-.18,2.19,2.19,0,0,0-1.6.6,2.24,2.24,0,0,0-.6,1.66,2.8,2.8,0,0,0,1,2.16,7.61,7.61,0,0,1,1.17-.11,1.22,1.22,0,0,1,.55.11.37.37,0,0,1,.21.33.3.3,0,0,1-.14.26.75.75,0,0,1-.39.1,1.84,1.84,0,0,1-.63-.12c-.21-.07-.46-.17-.76-.3a3,3,0,0,0-2.46,3.11,3.7,3.7,0,0,0,.66,2.2,4.12,4.12,0,0,0,1.82,1.42,6.77,6.77,0,0,0,2.6.48,7.21,7.21,0,0,0,2.5-.42,4.3,4.3,0,0,0,1.82-1.22,2.73,2.73,0,0,0,.68-1.83,3.43,3.43,0,0,0-.4-1.54,2.7,2.7,0,0,0-1.52-1.21c-1,.3-1.72.54-2.18.72a3.85,3.85,0,0,0-1.24.69,1.23,1.23,0,0,0-.43,1,1.3,1.3,0,0,0,.56,1.1,1.94,1.94,0,0,0,1.18.42,2.4,2.4,0,0,0,.71-.12c.25-.07.39-.17.43-.3a1.33,1.33,0,0,1-.62-.3.85.85,0,0,1-.27-.67,1,1,0,0,1,.29-.72,1.08,1.08,0,0,1,.75-.27,1,1,0,0,1,.73.29,1,1,0,0,1,.28.74,1.33,1.33,0,0,1-.7,1.19,2.83,2.83,0,0,1-1.56.44,2.53,2.53,0,0,1-1.64-.56,2,2,0,0,1-.71-1.66,2.26,2.26,0,0,1,.65-1.64,4.94,4.94,0,0,1,2-1.13l1.34-.4c.76-.21,1.4-.4,1.9-.57a12.27,12.27,0,0,0,1.39-.53,3.47,3.47,0,0,0,1.27-.86,1.47,1.47,0,0,0,.36-1,1.74,1.74,0,0,0-.65-1.36,2.34,2.34,0,0,0-1.55-.56c-.32,0-.51.06-.57.17a.92.92,0,0,1,.39.37,1.08,1.08,0,0,1,.14.5.84.84,0,0,1-.31.67,1.11,1.11,0,0,1-.75.26,1.08,1.08,0,0,1-.7-.24.85.85,0,0,1-.31-.71,1,1,0,0,1,.64-1,3.22,3.22,0,0,1,1.45-.32A2.88,2.88,0,0,1,111.58,162.92Z"/><path class="cls-1" d="M128.91,175.55v.38c-.51,0-1.19-.06-2-.06q-1.63,0-2.43.06v-.38a2.84,2.84,0,0,0,1-.18.51.51,0,0,0,.31-.52,2.57,2.57,0,0,0-.22-.89l-1.16-3.12h-4.6l-.78,2a5,5,0,0,0-.37,1.55,1,1,0,0,0,.4.86,2.51,2.51,0,0,0,1.25.28v.38q-1.08-.06-2.19-.06a13.9,13.9,0,0,0-1.42.06v-.38q.94-.23,1.5-1.65l4.46-11.5h.3l4.64,11.94C127.9,175.12,128.34,175.53,128.91,175.55Zm-4.65-5.09-2.13-5.67L120,170.46Z"/><path class="cls-1" d="M145.06,162.49v.38a2.14,2.14,0,0,0-1.5,1.65L140,176h-.3l-3.3-9.78-3,9.78h-.3l-4-11.94c-.26-.79-.7-1.19-1.31-1.22v-.38c.52,0,1.2.06,2,.06s1.6,0,2-.06v.38a1.53,1.53,0,0,0-.72.19.54.54,0,0,0-.21.47,3.19,3.19,0,0,0,.21.93l2.77,8.47,2.32-7.35-.51-1.49c-.26-.79-.63-1.19-1.12-1.22v-.38c.45,0,1.07.06,1.84.06q1.63,0,2.43-.06v.38a3.54,3.54,0,0,0-1,.16.5.5,0,0,0-.28.52,2.89,2.89,0,0,0,.19.91l2.73,8.45,2.34-7.34a5.27,5.27,0,0,0,.3-1.54,1,1,0,0,0-.38-.89,2.33,2.33,0,0,0-1.23-.27v-.38c.72,0,1.44.06,2.18.06A13.9,13.9,0,0,0,145.06,162.49Z"/><path class="cls-1" d="M156,175.55v.38c-.51,0-1.19-.06-2-.06q-1.63,0-2.43.06v-.38a2.84,2.84,0,0,0,1-.18.51.51,0,0,0,.31-.52,2.57,2.57,0,0,0-.22-.89l-1.16-3.12h-4.6l-.78,2a5,5,0,0,0-.37,1.55,1,1,0,0,0,.4.86,2.51,2.51,0,0,0,1.25.28v.38q-1.08-.06-2.19-.06a13.9,13.9,0,0,0-1.42.06v-.38q.94-.23,1.5-1.65l4.46-11.5h.3l4.64,11.94C155,175.12,155.45,175.53,156,175.55Zm-4.65-5.09-2.13-5.67-2.16,5.67Z"/><path class="cls-1" d="M168.05,175a3.29,3.29,0,0,1-.87.93,2.1,2.1,0,0,1-1.16.29,1.81,1.81,0,0,1-1.28-.46,3,3,0,0,1-.75-1.59l-.42-1.9a12.84,12.84,0,0,0-.42-1.52,2,2,0,0,0-.6-.85,1.72,1.72,0,0,0-1.12-.33h-1.81v4.37a3.22,3.22,0,0,0,.12,1,.67.67,0,0,0,.43.44,3.36,3.36,0,0,0,1,.15v.38c-.58,0-1.38-.06-2.41-.06s-1.9,0-2.43.06v-.38a3.44,3.44,0,0,0,1-.15.7.7,0,0,0,.43-.44,3.61,3.61,0,0,0,.11-1V164.5a3.61,3.61,0,0,0-.11-1,.7.7,0,0,0-.43-.44,4.32,4.32,0,0,0-1-.15v-.38c.53,0,1.3.06,2.32.06l2.05,0,.81,0a5.45,5.45,0,0,1,3.39.92,2.88,2.88,0,0,1,1.19,2.38,3.53,3.53,0,0,1-.35,1.49,3.63,3.63,0,0,1-1.18,1.35,4.94,4.94,0,0,1-2.15.81l.22,0a2.73,2.73,0,0,1,2.66,2.5l.48,1.94a4.07,4.07,0,0,0,.4,1.21.61.61,0,0,0,.56.34.84.84,0,0,0,.55-.17,2.83,2.83,0,0,0,.5-.55Zm-7.9-12a.74.74,0,0,0-.41.48,3.29,3.29,0,0,0-.12,1v4.67h1.28a3.28,3.28,0,0,0,2.58-.83,3.49,3.49,0,0,0,.7-2.32,3.34,3.34,0,0,0-.74-2.35,3.17,3.17,0,0,0-2.41-.8A2.2,2.2,0,0,0,160.15,163Z"/><path class="cls-1" d="M178.84,164.17a6.66,6.66,0,0,1,1.67,4.89,7.65,7.65,0,0,1-.82,3.63,5.75,5.75,0,0,1-2.36,2.4,7.63,7.63,0,0,1-3.7.84l-1.1,0-1.55,0c-1,0-1.83,0-2.36.06v-.38a3.44,3.44,0,0,0,1-.15.7.7,0,0,0,.43-.44,3.61,3.61,0,0,0,.11-1V164.5a3.61,3.61,0,0,0-.11-1,.7.7,0,0,0-.43-.44,4.32,4.32,0,0,0-1-.15v-.38c.45,0,1.06.06,1.85.06l1.61,0c.86,0,1.44,0,1.73,0A6.82,6.82,0,0,1,178.84,164.17Zm-6.39-1.2a.72.72,0,0,0-.41.47,3.34,3.34,0,0,0-.11,1V174a3.34,3.34,0,0,0,.11,1,.76.76,0,0,0,.41.48,2.31,2.31,0,0,0,.9.13,5.88,5.88,0,0,0,3.17-.73,3.88,3.88,0,0,0,1.62-2.14,11.55,11.55,0,0,0,.47-3.58,10.37,10.37,0,0,0-.51-3.56,3.86,3.86,0,0,0-1.66-2.06,6,6,0,0,0-3.11-.69A2.2,2.2,0,0,0,172.45,163Z"/><path class="cls-1" d="M187.73,162.46a5.33,5.33,0,0,1,1,.52,1.36,1.36,0,0,0,.64.27.29.29,0,0,0,.27-.2,2.4,2.4,0,0,0,.15-.64h.44c-.07.74-.1,2-.1,3.88h-.43a4.87,4.87,0,0,0-.89-2.59,2.57,2.57,0,0,0-2.23-1.06,2.33,2.33,0,0,0-1.67.62,2.09,2.09,0,0,0-.64,1.58,2.34,2.34,0,0,0,.33,1.26,3.31,3.31,0,0,0,.84.91c.35.25.83.57,1.47,1l.55.34a21,21,0,0,1,1.89,1.3,4.64,4.64,0,0,1,1.11,1.28,3.38,3.38,0,0,1,.41,1.69,3.27,3.27,0,0,1-1.14,2.67,4.39,4.39,0,0,1-2.88.94,5,5,0,0,1-1.49-.19,5.1,5.1,0,0,1-1.11-.52,1.46,1.46,0,0,0-.65-.26.29.29,0,0,0-.26.2,2,2,0,0,0-.16.63h-.43c.05-.69.07-2.21.07-4.55h.44a6.25,6.25,0,0,0,1,3.11,2.82,2.82,0,0,0,2.51,1.2,2.51,2.51,0,0,0,1.74-.64,2.38,2.38,0,0,0,.72-1.89,2.47,2.47,0,0,0-.71-1.8,11.23,11.23,0,0,0-2.25-1.67,19.87,19.87,0,0,1-1.81-1.22,4.33,4.33,0,0,1-1.13-1.28,3.42,3.42,0,0,1-.44-1.75,3,3,0,0,1,1-2.44,3.82,3.82,0,0,1,2.54-.85A3.88,3.88,0,0,1,187.73,162.46Z"/><path class="cls-1" d="M97.38,41.16l.07,0,.07,0Z"/><polygon class="cls-1" points="97.45 41.29 97.04 41.08 97.85 41.08 97.45 41.29"/><path class="cls-1" d="M97.23,46.55a103.18,103.18,0,0,1,15.33,1.14A18.61,18.61,0,0,0,99.79,42,2.56,2.56,0,0,1,95,42a18.61,18.61,0,0,0-12.77,5.68,103.28,103.28,0,0,1,15.33-1.14"/><path class="cls-1" d="M93.89,37.41a2.27,2.27,0,0,1,1.12,1,2.42,2.42,0,0,1,.31,1.23,2.06,2.06,0,1,0,4.11,0,2.77,2.77,0,0,1,.5-1.31,2.55,2.55,0,0,1,1.11-.88Z"/><path class="cls-1" d="M99.21,33.33a2.85,2.85,0,0,1-1.33-1.71l-.49-1.68h0l-.52,1.79a2.92,2.92,0,0,1-1.24,1.68,3.57,3.57,0,0,0-1.7,3H101A3.58,3.58,0,0,0,99.21,33.33Z"/><path class="cls-1" d="M103.29,71.58c-3,6.14-8.67,6.14-11.7,0,1.59.53,3.44,1.57,6,1.51C99.71,73.05,101.84,72.06,103.29,71.58Z"/><path class="cls-1" d="M80.53,49a6.5,6.5,0,0,1-4.3-1.56A4.7,4.7,0,0,1,74.61,45a12,12,0,0,1-.29-1.44c0-.39-3,0-3,0s0,.27-.11.88-.13,1.24-.15,1.85a26.3,26.3,0,0,0,0,3.66,13.13,13.13,0,0,0,.67,3.43A8.26,8.26,0,0,0,73.48,56c1.89,1.85,3.86,1.79,5.59,2.52a8.19,8.19,0,0,1,3.86,3.67.63.63,0,0,1-1,.8l0,0c-.46-.4-2.3-1.82-2.78-2.13A11.51,11.51,0,0,0,76,59.41c-.59-.18-1.23-.35-1.89-.59a7.53,7.53,0,0,1-2-1,6.6,6.6,0,0,1-1.56-1.65,8.65,8.65,0,0,1-1-1.95,15.26,15.26,0,0,1-.81-4,29.22,29.22,0,0,1,0-4c0-.66.11-1.31.16-2s.16-1.29.24-1.93l.12-1h7.31a9.1,9.1,0,0,0,.75,3.84A9.31,9.31,0,0,0,80.53,49Z"/><path class="cls-1" d="M114.41,48.83a6.5,6.5,0,0,0,4.3-1.57,4.59,4.59,0,0,0,1.61-2.4,12.41,12.41,0,0,0,.3-1.43c0-.39,3,0,3,0s0,.26.11.88.13,1.24.15,1.85a26.3,26.3,0,0,1,0,3.66,12.81,12.81,0,0,1-.68,3.43,7.89,7.89,0,0,1-1.76,2.57c-1.88,1.84-3.85,1.79-5.58,2.51A8.33,8.33,0,0,0,112,62a.64.64,0,0,0,1,.8l0,0c.46-.4,2.3-1.83,2.78-2.13A11.51,11.51,0,0,1,119,59.27c.59-.18,1.22-.35,1.89-.59a7.84,7.84,0,0,0,2-1A6.74,6.74,0,0,0,124.37,56a8.7,8.7,0,0,0,1-1.95,15.23,15.23,0,0,0,.8-4,27.69,27.69,0,0,0,0-4c0-.65-.11-1.3-.17-2s-.16-1.29-.24-1.94l-.12-1h-7.31a9,9,0,0,1-.75,3.83A9.21,9.21,0,0,1,114.41,48.83Z"/><path class="cls-1" d="M101.21,76.93a5.25,5.25,0,1,1-7.15,0,8.18,8.18,0,0,0,3.46.85A8.06,8.06,0,0,0,101.21,76.93Z"/><path class="cls-1" d="M107.48,89a15.24,15.24,0,0,1-.47-5.11h-3a7.21,7.21,0,0,1-12.74,0h-3A15.46,15.46,0,0,1,88,88.42a18.2,18.2,0,0,1-2.5,5.82h24.4A18.3,18.3,0,0,1,107.48,89Z"/><path class="cls-1" d="M97.38,47.74h0Z"/><path class="cls-1" d="M112.55,48.78a110.29,110.29,0,0,0-30.22,0v0A26,26,0,0,1,83.89,52c2.5,6,1.62,9.9,2.56,13.34A5.14,5.14,0,0,0,87.54,67a13,13,0,0,0,19.81,0,5.24,5.24,0,0,0,1.08-1.75c.95-3.44.06-7.38,2.56-13.34a26,26,0,0,1,1.56-3.12Zm-21,18a9.34,9.34,0,0,1-2.53-2.12,3.67,3.67,0,0,1-.77-1.22,16.6,16.6,0,0,1-.41-3,20.42,20.42,0,0,0-1.52-7,19.23,19.23,0,0,0-1-2.09c1.53-.21,3.09-.38,4.64-.49C90.38,51.88,92.38,57.53,91.59,66.83Z"/><path class="cls-1" d="M82.48,98.66v6.87a43,43,0,0,0,30.37,0V98.66A2.86,2.86,0,0,0,110,95.8H85.34A2.86,2.86,0,0,0,82.48,98.66Z"/><path class="cls-1" d="M97.53,7.14A53.64,53.64,0,1,1,43.89,60.77,53.64,53.64,0,0,1,97.53,7.14m0-2.08a55.72,55.72,0,1,0,55.72,55.71A55.78,55.78,0,0,0,97.53,5.06Z"/><path class="cls-1" d="M97.53,13.92A46.86,46.86,0,1,1,50.67,60.77,46.86,46.86,0,0,1,97.53,13.92m0-4.11a51,51,0,1,0,51,51,51,51,0,0,0-51-51Z"/></svg>